<svg xmlns="http://www.w3.org/2000/svg" viewBox="0 0 120 200" role="img" aria-label="Дьявол"><title>Дьявол</title>
<g fill="none" stroke="currentColor" stroke-width="1.3" stroke-linecap="round" stroke-linejoin="round">
<path d="M60 38L54 20L70 31L50 31L66 20Z" stroke-width="1"/><circle cx="60" cy="29" r="12" stroke-width=".8"/><circle cx="60" cy="62" r="7"/><path d="M54 58Q48 48 56 46M66 58Q72 48 64 46"/><path class="wash" d="M60 69L44 112H76Z" stroke="none"/><path d="M60 69L44 112H76ZM54 76Q28 70 24 96M66 76Q92 70 96 96"/><path d="M36 120H84V150H36Z"/><circle class="rose" cx="30" cy="160" r="4" stroke="none"/><circle cx="30" cy="160" r="4"/><circle cx="90" cy="160" r="4"/><path d="M30 164V184M90 164V184M42 130Q34 140 32 156M78 130Q86 140 88 156"/>
</g></svg>
